<svg width="85" height="13" viewBox="0 0 85 13" fill="none" xmlns="http://www.w3.org/2000/svg">
<path d="M6.536 0.848V2.032H1.688V5.792H5.624V6.976H1.688V12H0.232V0.848H6.536ZM14.8865 9.52H10.0225L9.1265 12H7.5905L11.6225 0.912H13.3025L17.3185 12H15.7825L14.8865 9.52ZM14.4705 8.336L12.4545 2.704L10.4385 8.336H14.4705ZM28.2918 0.848L24.0838 12H22.4038L18.1958 0.848H19.7478L23.2518 10.464L26.7558 0.848H28.2918ZM34.9443 12.112C33.9096 12.112 32.9656 11.872 32.1123 11.392C31.2589 10.9013 30.5816 10.224 30.0803 9.36C29.5896 8.48533 29.3443 7.504 29.3443 6.416C29.3443 5.328 29.5896 4.352 30.0803 3.488C30.5816 2.61333 31.2589 1.936 32.1123 1.456C32.9656 0.965333 33.9096 0.719999 34.9443 0.719999C35.9896 0.719999 36.9389 0.965333 37.7923 1.456C38.6456 1.936 39.3176 2.608 39.8083 3.472C40.2989 4.336 40.5443 5.31733 40.5443 6.416C40.5443 7.51467 40.2989 8.496 39.8083 9.36C39.3176 10.224 38.6456 10.9013 37.7923 11.392C36.9389 11.872 35.9896 12.112 34.9443 12.112ZM34.9443 10.848C35.7229 10.848 36.4216 10.6667 37.0403 10.304C37.6696 9.94133 38.1603 9.424 38.5123 8.752C38.8749 8.08 39.0563 7.30133 39.0563 6.416C39.0563 5.52 38.8749 4.74133 38.5123 4.08C38.1603 3.408 37.6749 2.89067 37.0563 2.528C36.4376 2.16533 35.7336 1.984 34.9443 1.984C34.1549 1.984 33.4509 2.16533 32.8323 2.528C32.2136 2.89067 31.7229 3.408 31.3603 4.08C31.0083 4.74133 30.8323 5.52 30.8323 6.416C30.8323 7.30133 31.0083 8.08 31.3603 8.752C31.7229 9.424 32.2136 9.94133 32.8323 10.304C33.4616 10.6667 34.1656 10.848 34.9443 10.848ZM48.3384 12L45.6824 7.44H43.9224V12H42.4664V0.848H46.0664C46.909 0.848 47.6184 0.992 48.1944 1.28C48.781 1.568 49.2184 1.95733 49.5064 2.448C49.7944 2.93867 49.9384 3.49867 49.9384 4.128C49.9384 4.896 49.7144 5.57333 49.2664 6.16C48.829 6.74667 48.1677 7.136 47.2824 7.328L50.0824 12H48.3384ZM43.9224 6.272H46.0664C46.8557 6.272 47.4477 6.08 47.8424 5.696C48.237 5.30133 48.4344 4.77867 48.4344 4.128C48.4344 3.46667 48.237 2.95467 47.8424 2.592C47.4584 2.22933 46.8664 2.048 46.0664 2.048H43.9224V6.272ZM53.6568 0.848V12H52.2008V0.848H53.6568ZM63.0023 0.848V2.032H59.9623V12H58.5063V2.032H55.4503V0.848H63.0023ZM69.8505 12.112C68.8158 12.112 67.8718 11.872 67.0185 11.392C66.1652 10.9013 65.4878 10.224 64.9865 9.36C64.4958 8.48533 64.2505 7.504 64.2505 6.416C64.2505 5.328 64.4958 4.352 64.9865 3.488C65.4878 2.61333 66.1652 1.936 67.0185 1.456C67.8718 0.965333 68.8158 0.719999 69.8505 0.719999C70.8958 0.719999 71.8452 0.965333 72.6985 1.456C73.5518 1.936 74.2238 2.608 74.7145 3.472C75.2052 4.336 75.4505 5.31733 75.4505 6.416C75.4505 7.51467 75.2052 8.496 74.7145 9.36C74.2238 10.224 73.5518 10.9013 72.6985 11.392C71.8452 11.872 70.8958 12.112 69.8505 12.112ZM69.8505 10.848C70.6292 10.848 71.3278 10.6667 71.9465 10.304C72.5758 9.94133 73.0665 9.424 73.4185 8.752C73.7812 8.08 73.9625 7.30133 73.9625 6.416C73.9625 5.52 73.7812 4.74133 73.4185 4.08C73.0665 3.408 72.5812 2.89067 71.9625 2.528C71.3438 2.16533 70.6398 1.984 69.8505 1.984C69.0612 1.984 68.3572 2.16533 67.7385 2.528C67.1198 2.89067 66.6292 3.408 66.2665 4.08C65.9145 4.74133 65.7385 5.52 65.7385 6.416C65.7385 7.30133 65.9145 8.08 66.2665 8.752C66.6292 9.424 67.1198 9.94133 67.7385 10.304C68.3678 10.6667 69.0718 10.848 69.8505 10.848ZM80.9086 12.112C80.1726 12.112 79.5113 11.984 78.9246 11.728C78.3486 11.4613 77.8953 11.0987 77.5646 10.64C77.234 10.1707 77.0633 9.632 77.0526 9.024H78.6046C78.658 9.54667 78.8713 9.98933 79.2446 10.352C79.6286 10.704 80.1833 10.88 80.9086 10.88C81.602 10.88 82.146 10.7093 82.5406 10.368C82.946 10.016 83.1486 9.568 83.1486 9.024C83.1486 8.59733 83.0313 8.25067 82.7966 7.984C82.562 7.71733 82.2686 7.51467 81.9166 7.376C81.5646 7.23733 81.09 7.088 80.4926 6.928C79.7566 6.736 79.1646 6.544 78.7166 6.352C78.2793 6.16 77.9006 5.86133 77.5806 5.456C77.2713 5.04 77.1166 4.48533 77.1166 3.792C77.1166 3.184 77.2713 2.64533 77.5806 2.176C77.89 1.70667 78.322 1.344 78.8766 1.088C79.442 0.831999 80.0873 0.704 80.8126 0.704C81.858 0.704 82.7113 0.965333 83.3726 1.488C84.0446 2.01067 84.4233 2.704 84.5086 3.568H82.9086C82.8553 3.14133 82.6313 2.768 82.2366 2.448C81.842 2.11733 81.3193 1.952 80.6686 1.952C80.0606 1.952 79.5646 2.112 79.1806 2.432C78.7966 2.74133 78.6046 3.17867 78.6046 3.744C78.6046 4.14933 78.7166 4.48 78.9406 4.736C79.1753 4.992 79.458 5.18933 79.7886 5.328C80.13 5.456 80.6046 5.60533 81.2126 5.776C81.9486 5.97867 82.5406 6.18133 82.9886 6.384C83.4366 6.576 83.8206 6.88 84.1406 7.296C84.4606 7.70133 84.6206 8.256 84.6206 8.96C84.6206 9.504 84.4766 10.016 84.1886 10.496C83.9006 10.976 83.474 11.3653 82.9086 11.664C82.3433 11.9627 81.6766 12.112 80.9086 12.112Z" fill="black"/>
</svg>
