<svg width="95" height="22" viewBox="0 0 95 22" fill="none" xmlns="http://www.w3.org/2000/svg">
<path d="M14.68 2.16V16H12.86V5.68L8.26 16H6.98L2.36 5.66V16H0.54V2.16H2.5L7.62 13.6L12.74 2.16H14.68ZM27.7666 10.1C27.7666 10.4467 27.7466 10.8133 27.7066 11.2H18.9466C19.0132 12.28 19.3799 13.1267 20.0466 13.74C20.7266 14.34 21.5466 14.64 22.5066 14.64C23.2932 14.64 23.9466 14.46 24.4666 14.1C24.9999 13.7267 25.3732 13.2333 25.5866 12.62H27.5466C27.2532 13.6733 26.6666 14.5333 25.7866 15.2C24.9066 15.8533 23.8132 16.18 22.5066 16.18C21.4666 16.18 20.5332 15.9467 19.7066 15.48C18.8932 15.0133 18.2532 14.3533 17.7866 13.5C17.3199 12.6333 17.0866 11.6333 17.0866 10.5C17.0866 9.36667 17.3132 8.37333 17.7666 7.52C18.2199 6.66667 18.8532 6.01333 19.6666 5.56C20.4932 5.09333 21.4399 4.86 22.5066 4.86C23.5466 4.86 24.4666 5.08667 25.2666 5.54C26.0666 5.99333 26.6799 6.62 27.1066 7.42C27.5466 8.20667 27.7666 9.1 27.7666 10.1ZM25.8866 9.72C25.8866 9.02667 25.7332 8.43333 25.4266 7.94C25.1199 7.43333 24.6999 7.05333 24.1666 6.8C23.6466 6.53333 23.0666 6.4 22.4266 6.4C21.5066 6.4 20.7199 6.69333 20.0666 7.28C19.4266 7.86667 19.0599 8.68 18.9666 9.72H25.8866ZM39.8889 5.04V16H38.0689V14.38C37.7222 14.94 37.2356 15.38 36.6089 15.7C35.9956 16.0067 35.3156 16.16 34.5689 16.16C33.7156 16.16 32.9489 15.9867 32.2689 15.64C31.5889 15.28 31.0489 14.7467 30.6489 14.04C30.2622 13.3333 30.0689 12.4733 30.0689 11.46V5.04H31.8689V11.22C31.8689 12.3 32.1422 13.1333 32.6889 13.72C33.2356 14.2933 33.9822 14.58 34.9289 14.58C35.9022 14.58 36.6689 14.28 37.2289 13.68C37.7889 13.08 38.0689 12.2067 38.0689 11.06V5.04H39.8889ZM50.1139 7.06C50.4739 6.43333 51.0072 5.91333 51.7139 5.5C52.4339 5.07333 53.2672 4.86 54.2139 4.86C55.1872 4.86 56.0672 5.09333 56.8539 5.56C57.6539 6.02667 58.2806 6.68667 58.7339 7.54C59.1872 8.38 59.4139 9.36 59.4139 10.48C59.4139 11.5867 59.1872 12.5733 58.7339 13.44C58.2806 14.3067 57.6539 14.98 56.8539 15.46C56.0672 15.94 55.1872 16.18 54.2139 16.18C53.2806 16.18 52.4539 15.9733 51.7339 15.56C51.0272 15.1333 50.4872 14.6067 50.1139 13.98V21.2H48.2939V5.04H50.1139V7.06ZM57.5539 10.48C57.5539 9.65333 57.3872 8.93333 57.0539 8.32C56.7206 7.70667 56.2672 7.24 55.6939 6.92C55.1339 6.6 54.5139 6.44 53.8339 6.44C53.1672 6.44 52.5472 6.60667 51.9739 6.94C51.4139 7.26 50.9606 7.73333 50.6139 8.36C50.2806 8.97333 50.1139 9.68667 50.1139 10.5C50.1139 11.3267 50.2806 12.0533 50.6139 12.68C50.9606 13.2933 51.4139 13.7667 51.9739 14.1C52.5472 14.42 53.1672 14.58 53.8339 14.58C54.5139 14.58 55.1339 14.42 55.6939 14.1C56.2672 13.7667 56.7206 13.2933 57.0539 12.68C57.3872 12.0533 57.5539 11.32 57.5539 10.48ZM71.8095 10.1C71.8095 10.4467 71.7895 10.8133 71.7495 11.2H62.9895C63.0562 12.28 63.4229 13.1267 64.0895 13.74C64.7695 14.34 65.5895 14.64 66.5495 14.64C67.3362 14.64 67.9895 14.46 68.5095 14.1C69.0429 13.7267 69.4162 13.2333 69.6295 12.62H71.5895C71.2962 13.6733 70.7095 14.5333 69.8295 15.2C68.9495 15.8533 67.8562 16.18 66.5495 16.18C65.5095 16.18 64.5762 15.9467 63.7495 15.48C62.9362 15.0133 62.2962 14.3533 61.8295 13.5C61.3629 12.6333 61.1295 11.6333 61.1295 10.5C61.1295 9.36667 61.3562 8.37333 61.8095 7.52C62.2629 6.66667 62.8962 6.01333 63.7095 5.56C64.5362 5.09333 65.4829 4.86 66.5495 4.86C67.5895 4.86 68.5095 5.08667 69.3095 5.54C70.1095 5.99333 70.7229 6.62 71.1495 7.42C71.5895 8.20667 71.8095 9.1 71.8095 10.1ZM69.9295 9.72C69.9295 9.02667 69.7762 8.43333 69.4695 7.94C69.1629 7.43333 68.7429 7.05333 68.2095 6.8C67.6895 6.53333 67.1095 6.4 66.4695 6.4C65.5495 6.4 64.7629 6.69333 64.1095 7.28C63.4695 7.86667 63.1029 8.68 63.0095 9.72H69.9295ZM76.0319 6.82C76.3519 6.19333 76.8052 5.70667 77.3919 5.36C77.9919 5.01333 78.7185 4.84 79.5719 4.84V6.72H79.0919C77.0519 6.72 76.0319 7.82667 76.0319 10.04V16H74.2119V5.04H76.0319V6.82ZM86.1328 6.54H83.8328V16H82.0128V6.54H80.5928V5.04H82.0128V4.26C82.0128 3.03333 82.3261 2.14 82.9528 1.58C83.5928 1.00667 84.6128 0.719999 86.0128 0.719999V2.24C85.2128 2.24 84.6461 2.4 84.3128 2.72C83.9928 3.02667 83.8328 3.54 83.8328 4.26V5.04H86.1328V6.54ZM89.1948 3.26C88.8482 3.26 88.5548 3.14 88.3148 2.9C88.0748 2.66 87.9548 2.36667 87.9548 2.02C87.9548 1.67333 88.0748 1.38 88.3148 1.14C88.5548 0.899999 88.8482 0.779999 89.1948 0.779999C89.5282 0.779999 89.8082 0.899999 90.0348 1.14C90.2748 1.38 90.3948 1.67333 90.3948 2.02C90.3948 2.36667 90.2748 2.66 90.0348 2.9C89.8082 3.14 89.5282 3.26 89.1948 3.26ZM90.0748 5.04V16H88.2548V5.04H90.0748ZM94.9967 1.2V16H93.1767V1.2H94.9967Z" fill="black"/>
</svg>
