<svg width="132" height="17" viewBox="0 0 132 17" fill="none" xmlns="http://www.w3.org/2000/svg">
<path d="M14.68 2.16V16H12.86V5.68L8.26 16H6.98L2.36 5.66V16H0.54V2.16H2.5L7.62 13.6L12.74 2.16H14.68ZM18.7066 3.26C18.3599 3.26 18.0666 3.14 17.8266 2.9C17.5866 2.66 17.4666 2.36667 17.4666 2.02C17.4666 1.67333 17.5866 1.38 17.8266 1.14C18.0666 0.899999 18.3599 0.779999 18.7066 0.779999C19.0399 0.779999 19.3199 0.899999 19.5466 1.14C19.7866 1.38 19.9066 1.67333 19.9066 2.02C19.9066 2.36667 19.7866 2.66 19.5466 2.9C19.3199 3.14 19.0399 3.26 18.7066 3.26ZM19.5866 5.04V16H17.7666V5.04H19.5866ZM28.0284 4.84C29.3618 4.84 30.4418 5.24667 31.2684 6.06C32.0951 6.86 32.5084 8.02 32.5084 9.54V16H30.7084V9.8C30.7084 8.70667 30.4351 7.87333 29.8884 7.3C29.3418 6.71333 28.5951 6.42 27.6484 6.42C26.6884 6.42 25.9218 6.72 25.3484 7.32C24.7884 7.92 24.5084 8.79333 24.5084 9.94V16H22.6884V5.04H24.5084V6.6C24.8684 6.04 25.3551 5.60667 25.9684 5.3C26.5951 4.99333 27.2818 4.84 28.0284 4.84ZM40.9214 4.84C41.7481 4.84 42.4947 5.02 43.1614 5.38C43.8281 5.72667 44.3481 6.25333 44.7214 6.96C45.1081 7.66667 45.3014 8.52667 45.3014 9.54V16H43.5014V9.8C43.5014 8.70667 43.2281 7.87333 42.6814 7.3C42.1347 6.71333 41.3881 6.42 40.4414 6.42C39.4814 6.42 38.7147 6.72 38.1414 7.32C37.5814 7.92 37.3014 8.79333 37.3014 9.94V16H35.4814V1.2H37.3014V6.6C37.6614 6.04 38.1547 5.60667 38.7814 5.3C39.4214 4.99333 40.1347 4.84 40.9214 4.84ZM47.5944 10.48C47.5944 9.36 47.821 8.38 48.2744 7.54C48.7277 6.68667 49.3477 6.02667 50.1344 5.56C50.9344 5.09333 51.821 4.86 52.7944 4.86C53.7544 4.86 54.5877 5.06667 55.2944 5.48C56.001 5.89333 56.5277 6.41333 56.8744 7.04V5.04H58.7144V16H56.8744V13.96C56.5144 14.6 55.9744 15.1333 55.2544 15.56C54.5477 15.9733 53.721 16.18 52.7744 16.18C51.801 16.18 50.921 15.94 50.1344 15.46C49.3477 14.98 48.7277 14.3067 48.2744 13.44C47.821 12.5733 47.5944 11.5867 47.5944 10.48ZM56.8744 10.5C56.8744 9.67333 56.7077 8.95333 56.3744 8.34C56.041 7.72667 55.5877 7.26 55.0144 6.94C54.4544 6.60667 53.8344 6.44 53.1544 6.44C52.4744 6.44 51.8544 6.6 51.2944 6.92C50.7344 7.24 50.2877 7.70667 49.9544 8.32C49.621 8.93333 49.4544 9.65333 49.4544 10.48C49.4544 11.32 49.621 12.0533 49.9544 12.68C50.2877 13.2933 50.7344 13.7667 51.2944 14.1C51.8544 14.42 52.4744 14.58 53.1544 14.58C53.8344 14.58 54.4544 14.42 55.0144 14.1C55.5877 13.7667 56.041 13.2933 56.3744 12.68C56.7077 12.0533 56.8744 11.3267 56.8744 10.5ZM71.002 16.18C70.162 16.18 69.4087 16.04 68.742 15.76C68.0754 15.4667 67.5487 15.0667 67.162 14.56C66.7754 14.04 66.562 13.4467 66.522 12.78H68.402C68.4554 13.3267 68.7087 13.7733 69.162 14.12C69.6287 14.4667 70.2354 14.64 70.982 14.64C71.6754 14.64 72.222 14.4867 72.622 14.18C73.022 13.8733 73.222 13.4867 73.222 13.02C73.222 12.54 73.0087 12.1867 72.582 11.96C72.1554 11.72 71.4954 11.4867 70.602 11.26C69.7887 11.0467 69.122 10.8333 68.602 10.62C68.0954 10.3933 67.6554 10.0667 67.282 9.64C66.922 9.2 66.742 8.62667 66.742 7.92C66.742 7.36 66.9087 6.84667 67.242 6.38C67.5754 5.91333 68.0487 5.54667 68.662 5.28C69.2754 5 69.9754 4.86 70.762 4.86C71.9754 4.86 72.9554 5.16667 73.702 5.78C74.4487 6.39333 74.8487 7.23333 74.902 8.3H73.082C73.042 7.72667 72.8087 7.26667 72.382 6.92C71.9687 6.57333 71.4087 6.4 70.702 6.4C70.0487 6.4 69.5287 6.54 69.142 6.82C68.7554 7.1 68.562 7.46667 68.562 7.92C68.562 8.28 68.6754 8.58 68.902 8.82C69.142 9.04667 69.4354 9.23333 69.782 9.38C70.142 9.51333 70.6354 9.66667 71.262 9.84C72.0487 10.0533 72.6887 10.2667 73.182 10.48C73.6754 10.68 74.0954 10.9867 74.442 11.4C74.802 11.8133 74.9887 12.3533 75.002 13.02C75.002 13.62 74.8354 14.16 74.502 14.64C74.1687 15.12 73.6954 15.5 73.082 15.78C72.482 16.0467 71.7887 16.18 71.002 16.18ZM76.8913 10.48C76.8913 9.36 77.1179 8.38 77.5713 7.54C78.0246 6.68667 78.6446 6.02667 79.4313 5.56C80.2313 5.09333 81.1179 4.86 82.0913 4.86C83.0513 4.86 83.8846 5.06667 84.5913 5.48C85.2979 5.89333 85.8246 6.41333 86.1713 7.04V5.04H88.0113V16H86.1713V13.96C85.8113 14.6 85.2713 15.1333 84.5513 15.56C83.8446 15.9733 83.0179 16.18 82.0713 16.18C81.0979 16.18 80.2179 15.94 79.4313 15.46C78.6446 14.98 78.0246 14.3067 77.5713 13.44C77.1179 12.5733 76.8913 11.5867 76.8913 10.48ZM86.1713 10.5C86.1713 9.67333 86.0046 8.95333 85.6713 8.34C85.3379 7.72667 84.8846 7.26 84.3113 6.94C83.7513 6.60667 83.1313 6.44 82.4513 6.44C81.7713 6.44 81.1513 6.6 80.5913 6.92C80.0313 7.24 79.5846 7.70667 79.2513 8.32C78.9179 8.93333 78.7513 9.65333 78.7513 10.48C78.7513 11.32 78.9179 12.0533 79.2513 12.68C79.5846 13.2933 80.0313 13.7667 80.5913 14.1C81.1513 14.42 81.7713 14.58 82.4513 14.58C83.1313 14.58 83.7513 14.42 84.3113 14.1C84.8846 13.7667 85.3379 13.2933 85.6713 12.68C86.0046 12.0533 86.1713 11.3267 86.1713 10.5ZM90.4069 10.5C90.4069 9.36667 90.6335 8.38 91.0869 7.54C91.5402 6.68667 92.1669 6.02667 92.9669 5.56C93.7802 5.09333 94.7069 4.86 95.7469 4.86C97.0935 4.86 98.2002 5.18667 99.0669 5.84C99.9469 6.49333 100.527 7.4 100.807 8.56H98.8469C98.6602 7.89333 98.2935 7.36667 97.7469 6.98C97.2135 6.59333 96.5469 6.4 95.7469 6.4C94.7069 6.4 93.8669 6.76 93.2269 7.48C92.5869 8.18667 92.2669 9.19333 92.2669 10.5C92.2669 11.82 92.5869 12.84 93.2269 13.56C93.8669 14.28 94.7069 14.64 95.7469 14.64C96.5469 14.64 97.2135 14.4533 97.7469 14.08C98.2802 13.7067 98.6469 13.1733 98.8469 12.48H100.807C100.514 13.6 99.9269 14.5 99.0469 15.18C98.1669 15.8467 97.0669 16.18 95.7469 16.18C94.7069 16.18 93.7802 15.9467 92.9669 15.48C92.1669 15.0133 91.5402 14.3533 91.0869 13.5C90.6335 12.6467 90.4069 11.6467 90.4069 10.5ZM108.015 16.18C106.989 16.18 106.055 15.9467 105.215 15.48C104.389 15.0133 103.735 14.3533 103.255 13.5C102.789 12.6333 102.555 11.6333 102.555 10.5C102.555 9.38 102.795 8.39333 103.275 7.54C103.769 6.67333 104.435 6.01333 105.275 5.56C106.115 5.09333 107.055 4.86 108.095 4.86C109.135 4.86 110.075 5.09333 110.915 5.56C111.755 6.01333 112.415 6.66667 112.895 7.52C113.389 8.37333 113.635 9.36667 113.635 10.5C113.635 11.6333 113.382 12.6333 112.875 13.5C112.382 14.3533 111.709 15.0133 110.855 15.48C110.002 15.9467 109.055 16.18 108.015 16.18ZM108.015 14.58C108.669 14.58 109.282 14.4267 109.855 14.12C110.429 13.8133 110.889 13.3533 111.235 12.74C111.595 12.1267 111.775 11.38 111.775 10.5C111.775 9.62 111.602 8.87333 111.255 8.26C110.909 7.64667 110.455 7.19333 109.895 6.9C109.335 6.59333 108.729 6.44 108.075 6.44C107.409 6.44 106.795 6.59333 106.235 6.9C105.689 7.19333 105.249 7.64667 104.915 8.26C104.582 8.87333 104.415 9.62 104.415 10.5C104.415 11.3933 104.575 12.1467 104.895 12.76C105.229 13.3733 105.669 13.8333 106.215 14.14C106.762 14.4333 107.362 14.58 108.015 14.58ZM117.848 1.2V16H116.028V1.2H117.848ZM120.27 10.48C120.27 9.36 120.497 8.38 120.95 7.54C121.403 6.68667 122.023 6.02667 122.81 5.56C123.61 5.09333 124.497 4.86 125.47 4.86C126.43 4.86 127.263 5.06667 127.97 5.48C128.677 5.89333 129.203 6.41333 129.55 7.04V5.04H131.39V16H129.55V13.96C129.19 14.6 128.65 15.1333 127.93 15.56C127.223 15.9733 126.397 16.18 125.45 16.18C124.477 16.18 123.597 15.94 122.81 15.46C122.023 14.98 121.403 14.3067 120.95 13.44C120.497 12.5733 120.27 11.5867 120.27 10.48ZM129.55 10.5C129.55 9.67333 129.383 8.95333 129.05 8.34C128.717 7.72667 128.263 7.26 127.69 6.94C127.13 6.60667 126.51 6.44 125.83 6.44C125.15 6.44 124.53 6.6 123.97 6.92C123.41 7.24 122.963 7.70667 122.63 8.32C122.297 8.93333 122.13 9.65333 122.13 10.48C122.13 11.32 122.297 12.0533 122.63 12.68C122.963 13.2933 123.41 13.7667 123.97 14.1C124.53 14.42 125.15 14.58 125.83 14.58C126.51 14.58 127.13 14.42 127.69 14.1C128.263 13.7667 128.717 13.2933 129.05 12.68C129.383 12.0533 129.55 11.3267 129.55 10.5Z" fill="black"/>
</svg>
