<svg width="26" height="32" viewBox="0 0 26 32" fill="none" xmlns="http://www.w3.org/2000/svg">
<path d="M22.5002 6.49996H19.3335C19.3335 3.00079 16.4993 0.166626 13.0002 0.166626C9.501 0.166626 6.66683 3.00079 6.66683 6.49996H3.50016C1.7585 6.49996 0.333496 7.92496 0.333496 9.66663V28.6666C0.333496 30.4083 1.7585 31.8333 3.50016 31.8333H22.5002C24.2418 31.8333 25.6668 30.4083 25.6668 28.6666V9.66663C25.6668 7.92496 24.2418 6.49996 22.5002 6.49996ZM13.0002 3.33329C14.7418 3.33329 16.1668 4.75829 16.1668 6.49996H9.8335C9.8335 4.75829 11.2585 3.33329 13.0002 3.33329ZM22.5002 28.6666H3.50016V9.66663H6.66683V12.8333C6.66683 13.7041 7.37933 14.4166 8.25016 14.4166C9.121 14.4166 9.8335 13.7041 9.8335 12.8333V9.66663H16.1668V12.8333C16.1668 13.7041 16.8793 14.4166 17.7502 14.4166C18.621 14.4166 19.3335 13.7041 19.3335 12.8333V9.66663H22.5002V28.6666Z" fill="#002F52"/>
</svg>
